<?xml version="1.0" standalone="no"?><!DOCTYPE svg PUBLIC "-//W3C//DTD SVG 1.1//EN" "http://www.w3.org/Graphics/SVG/1.1/DTD/svg11.dtd"><svg t="1718022730746" class="icon" viewBox="0 0 1365 1024" version="1.1" xmlns="http://www.w3.org/2000/svg" p-id="11397" xmlns:xlink="http://www.w3.org/1999/xlink" width="266.6015625" height="200"><path d="M1344.682667 632.96l-161.664-97.365333-160 98.005333 0.170666 0.085333-1.237333 0.768-19.925333 12.032-0.213334 0.085334c-29.952 18.005333-67.413333 40.448-106.410666 63.488-57.6 34.005333-122.88 71.722667-167.509334 97.450666a108.373333 108.373333 0 0 1-108.117333 0 20008.96 20008.96 0 0 1-248.533333-144.938666l1.066666 0.682666 78.976 47.616-0.085333 0.085334-127.061333-76.501334-1.194667-0.768 1.194667-0.725333 127.061333-76.544 0.085333 0.128-78.976 47.616-1.066666 0.682667a24722.133333 24722.133333 0 0 1 247.893333-145.194667 108.202667 108.202667 0 0 1 109.098667 0.298667c62.805333 36.949333 166.101333 97.621333 232.661333 136.874666l162.56-97.92-289.024-174.08A312.917333 312.917333 0 0 0 674.688 279.978667h-0.426667l-0.981333 0.042666a316.586667 316.586667 0 0 0-161.493333 44.757334l-240.768 145.066666-0.085334-0.170666-108.885333 65.621333L0 632.96l1.194667 0.725333L0 634.453333l162.048 97.621334 108.885333 65.578666 0.085334-0.128 240.768 145.066667a316.586667 316.586667 0 0 0 161.493333 44.757333l0.981333 0.042667h0.426667a312.96 312.96 0 0 0 159.744-44.8l319.786667-192.64a164.693333 164.693333 0 0 0 11.818666-7.893333l16.768-10.069334 161.877334-97.536-1.194667-0.768 1.194667-0.725333z" fill="#2F54C9" p-id="11398"></path><path d="M1365.333333 353.706667L1200.938667 256l-16.981334-10.154667a163.2 163.2 0 0 0-12.032-7.850666l-324.693333-193.109334A320.981333 320.981333 0 0 0 685.013333 0h-0.426666l-0.981334 0.042667a324.693333 324.693333 0 0 0-163.968 44.842666L275.2 190.293333v-0.128L164.522667 255.872 0 353.706667l1.237333 0.768L0 355.2l164.053333 97.536L328.064 354.56l-0.170667-0.085333 1.28-0.768 128.938667-76.672 0.085333 0.085333-80.213333 47.701333-1.066667 0.725334a24506.88 24506.88 0 0 1 252.032-145.706667 111.189333 111.189333 0 0 1 110.378667 0.085333c45.397333 26.026667 111.445333 64 169.813333 98.005334 49.024 28.586667 95.872 56.32 128.512 75.776l1.28 0.768-1.28 0.725333c-32.64 19.413333-79.488 47.189333-128.512 75.776-58.496 34.133333-124.714667 71.893333-170.069333 97.706667a111.317333 111.317333 0 0 1-109.738667 0A21514.837333 21514.837333 0 0 1 390.826667 391.552l-0.085334 0.085333 67.413334 40.106667-0.085334 0.128-67.498666-40.149333-164.650667 97.792 49.152 29.226666 0.085333-0.128 244.48 145.365334a324.522667 324.522667 0 0 0 163.925334 44.842666l0.981333 0.042667h0.426667a320.853333 320.853333 0 0 0 162.218666-44.885333l324.693334-193.066667c4.138667-2.474667 8.106667-5.12 12.032-7.893333l16.981333-10.112L1365.333333 355.2l-1.237333-0.725333L1365.333333 353.706667z" fill="#04CC83" p-id="11399"></path><path d="M980.906667 397.141333c-19.541333 12.373333-40.746667 25.770667-62.378667 39.338667-32.213333 20.181333-65.408 40.746667-95.658667 59.136 30.208 18.304 63.274667 38.826667 95.36 58.88 21.76 13.653333 43.050667 27.093333 62.677334 39.552l154.026666-98.432-154.026666-98.474667zM387.968 397.141333h-0.085333l62.933333 40.362667-0.085333 0.128-62.976-40.362667-108.032 69.205334-0.085334-0.085334-45.568 29.184 45.866667 29.44 0.085333-0.170666 107.733334 69.034666 62.72-40.106666 0.042666 0.085333-62.634666 40.106667 0.085333 0.085333c48.682667-30.848 107.434667-67.754667 158.165333-98.432-50.773333-30.762667-109.525333-67.669333-158.165333-98.474667" fill="#00A3DF" p-id="11400"></path></svg>